<?xml version="1.0" standalone="no"?>
<!DOCTYPE svg PUBLIC "-//W3C//DTD SVG 20010904//EN"
 "http://www.w3.org/TR/2001/REC-SVG-20010904/DTD/svg10.dtd">
<svg version="1.0" xmlns="http://www.w3.org/2000/svg"
 width="372.000000pt" height="238.000000pt" viewBox="0 0 372.000000 238.000000"
 preserveAspectRatio="xMidYMid meet">

<g transform="translate(0.000000,238.000000) scale(0.100000,-0.100000)"
fill="#000000" stroke="none">
<path d="M965 2349 c-491 -67 -821 -384 -922 -885 -24 -124 -25 -433 0 -556
95 -476 387 -775 851 -876 118 -25 462 -24 601 2 147 27 340 103 414 163 l24
19 -19 245 c-18 235 -20 244 -40 247 -19 3 -23 -3 -29 -50 -39 -283 -229 -499
-511 -580 -102 -29 -284 -31 -384 -4 -267 72 -423 297 -487 698 -14 91 -18
173 -18 418 0 275 3 318 24 435 59 333 180 537 371 628 99 47 171 61 310 61
289 0 496 -129 620 -389 21 -44 93 -226 160 -405 163 -435 337 -881 466 -1196
58 -143 108 -265 111 -272 3 -6 16 -12 28 -12 19 0 27 10 43 53 213 562 597
1565 639 1667 126 305 218 451 315 501 20 10 68 22 107 25 60 6 71 10 71 25 0
18 -17 19 -405 19 -381 0 -405 -1 -405 -18 0 -14 15 -20 77 -30 243 -38 284
-216 145 -637 -43 -130 -443 -1197 -448 -1193 -1 2 -134 356 -295 788 -273
733 -293 789 -293 850 0 115 53 178 163 196 31 5 41 11 41 25 0 14 -7 19 -27
19 -16 0 -176 5 -358 10 -589 16 -868 19 -940 9z"/>
</g>
</svg>
